<svg xmlns="http://www.w3.org/2000/svg" viewBox="0 0 64 64">
  <rect width="64" height="64" rx="14" fill="#1a1411"/>
  <path d="M32 10c4 8-2 11-2 16 0 3 2 5 5 5 4 0 6-4 5-8 6 5 8 12 8 17 0 9-7 16-16 16S16 49 16 40c0-9 6-14 9-19 2-4 3-8 7-11z" fill="#e8541e"/>
  <path d="M32 30c2 4-1 6-1 9 0 3 2 5 5 5 3 0 5-3 4-7 2 3 3 6 3 9 0 6-5 10-11 10s-11-4-11-10c0-5 4-9 6-13 1-2 2-4 0-6 .3.5 1 2 0 0z" fill="#ff7a3d"/>
  <path d="M32 42c1 2-.5 3-.5 4.5 0 1.5 1 2.5 2.5 2.5s2.5-1.5 2-3.5c2.5 2.5 1 8-2.5 8-3 0-5-2-5-5 0-1.8 1-3 1.5-4z" fill="#f2a83c"/>
</svg>
